<svg version="1" xmlns="http://www.w3.org/2000/svg" width="346.667" height="346.667" viewBox="0 0 260.000000 260.000000"><path d="M42.4 1.4C22.8 7.6 5.8 26.4 1.5 46.6c-2.2 10.2-2.2 155.6 0 165.9 2.4 11.6 7.6 20.8 16.9 30.1 8.6 8.6 16.3 13.2 26.6 15.9 8.2 2.2 161.8 2.2 170 0 10.3-2.7 18-7.3 26.6-15.9 9.3-9.3 14.5-18.5 16.9-30.1 2.2-10.3 2.2-155.7 0-165.9-3.7-17.6-16.3-33.5-32.9-41.7L216.7.5 131.6.3C64.8.2 45.6.4 42.4 1.4zm171.7 9.4c8.4 2.8 17.3 8.5 22.8 14.8 5.3 6 10.7 16.9 12.1 24.6.7 3.7 1 32.2.8 83l-.3 77.3-2.7 6.8c-1.5 3.7-4 8.6-5.6 11-7.6 10.9-21.3 19.6-34.2 21.7-8.8 1.3-145.2 1.3-154 0-12.9-2.1-26.6-10.8-34.2-21.7-1.6-2.4-4.1-7.3-5.6-11l-2.7-6.8-.3-77.3c-.2-50.8.1-79.3.8-83C14.9 29 32.5 12.3 54.4 9c2.8-.5 38.4-.7 79.1-.6 73.5.1 74 .2 80.6 2.4z"/><path d="M42.4 82.6c-4.8 2.3-6.4 6.9-6.4 18.2 0 13-1.2 17-5.5 18.8-1.9.8-4.8 1.4-6.5 1.4-2.9 0-3 .2-3 4.5 0 4.5 0 4.5 3.5 4.5 9.1 0 11.5 4.2 11.5 20.2 0 16.2 2.8 19.2 18.4 20.4l8.6.7V161h-4.8c-8.1 0-8.6-.8-9.2-15.7-.7-13.8-1.5-16.3-6.3-18.6l-2.8-1.4 2.8-1.2c4.8-2 5.7-4.5 6.3-18.2.6-15.1 1-15.9 8.6-15.9H63v-9h-8.7c-5.8 0-9.8.6-11.9 1.6zM197 85.5V90h4.8c8.1 0 8.6.9 9.2 15.7.6 13.6 1.3 16.1 5.4 18.3l2.6 1.3-2.7 1.8c-4.1 2.7-4.7 4.5-5.3 18.2-.6 14.9-1.1 15.7-9.2 15.7H197v10.3l8.6-.7c15.7-1.2 17.5-3.4 18.4-22.3.8-15.8 1.5-17.3 9.9-18.1l5.1-.5v-4.3c0-4.2-.1-4.4-3-4.4-3.6 0-9.4-2.3-10.6-4.1-.4-.7-1.1-7.3-1.4-14.6-.9-18.9-2.9-21.3-18.2-21.3H197v4.5zM89.4 99.4c-.3.8-.4 2.3-.2 3.3.3 1.5 1.6 1.8 9.1 2.1l8.7.3v17.7c0 20.6-.9 23.7-7.2 26-7.9 3-15.6-1.1-16.4-8.8-1-8.7-1.2-9.2-4.2-8.8-2.7.3-2.7.3-3 9.5l-.3 9.3 3.1 1.9c4.4 2.6 14.1 4.5 20.1 3.8 6.7-.8 10.7-3.3 13.3-8.2 1.9-3.6 2.1-6 2.4-23.2l.4-19.2 5.1-.3c5-.3 5.2-.4 5.2-3.3v-3l-17.8-.3c-14.8-.2-17.8 0-18.3 1.2zM133.1 99.4c-1.2 1.4-.5 4.5 1 4.7.5.1 1.5.2 2.2.3.9.1 1.1 4.1.9 17.1-.2 9.4-.5 19.1-.8 21.7-.5 4.2-.9 4.8-2.9 4.8-2.4 0-4.2 3-3 5 .3.6 4.9 1 10.5 1 8.1 0 9.9-.3 10.4-1.6.9-2.4-1.2-4.4-4.5-4.4-1.5 0-3-.3-3.2-.8-.2-.4-.1-9.5.2-20.2l.6-19.4 4.4 12.9c5.1 15.3 6.3 17.5 9.5 17.5 3.4 0 4.1-1.3 9.1-15.6 2.5-7 4.7-13 5-13.2.3-.3.5 5.3.5 12.4 0 7.1.3 15.9.6 19.6l.7 6.7-3.9.3c-3.4.3-3.9.6-3.9 2.8 0 2.5.1 2.5 10.3 2.8l10.3.3-.3-2.8c-.2-2.2-.9-2.9-3-3.1-2.8-.3-2.8-.4-2.8-7.5 0-4-.3-13.5-.7-21.3l-.6-14.1 2.7-.7c2.2-.5 2.7-1.1 2.4-3.4-.3-2.5-.7-2.7-5.2-3-9.7-.6-9.3-1.2-16.7 21.5-1.9 5.7-3.6 10.3-3.9 10.3-.3 0-2.8-6.4-5.4-14.3-2.7-7.8-5.6-15-6.4-16-1.9-2.2-12.3-2.4-14.1-.3z"/></svg>