<svg version="1" xmlns="http://www.w3.org/2000/svg" width="346.667" height="346.667" viewBox="0 0 260.000000 260.000000"><path d="M117 20c-10.6 1-19.3 3.7-26 8-3.1 2.1-7.3 4.1-9.1 4.5-9.9 2.2-20.2 11.2-23.8 21.1-2.2 5.8-2.5 10.3-1.2 17.1.7 3.6.4 5.1-1.8 9.5-2.1 4.4-2.6 6.9-3 15.7-.4 11.8 1.1 25 4 36.1 2.3 8.5 3 13.7 2.3 16.3-.5 1.6-.8 1.5-2.6-.8-1-1.4-2.6-2.5-3.4-2.5-2.1 0-1.7 5.4.5 7.4 1.1 1 2.3 3.2 2.7 5 .3 1.7 1.9 5.8 3.5 9.2 1.6 3.4 2.9 6.9 2.9 7.9 0 1.6-.3 1.6-2.6-.6l-2.7-2.4 1.8 2.8c1 1.5 2.6 3.2 3.6 3.8 1 .5 2.3 2.8 2.9 5.2 2 7.4 8.2 21 12.7 27.9 7.8 11.9 19.9 22.5 35.3 31.1 16.8 9.3 33 8.8 48.1-1.3 17.6-11.9 28-24.6 36.9-45 3.7-8.4 8.1-24 8-28.3-.1-4.4 3.2-14 4.3-12.5.5.9.6.5.2-.9-.3-1.2-.1-2.4.5-2.8 1.4-.8 1.3-7.2-.2-8.1-.6-.4-1.7 0-2.3 1-2.6 3.5-2.5-5.1.3-16.7 2.2-9.5 2.7-13.5 2.7-26.2 0-14.6-.1-15.2-3-21-2.9-5.9-3.9-10.1-5.3-22-.4-3.3-1.2-6.8-1.8-7.8-2.3-4-16.5-17.4-21.8-20.6-15.4-9.3-36.3-12.6-62.6-10.1zm26 50.5c25.2.1 31.5.5 36 1.8 7.4 2.3 8.2 2.9 8.9 7.4.7 4.4.7 22.7 0 29.4l-.4 4.6-3.5-1.5c-8-3.3-26.5-.9-29 3.9-1.2 2.1 0 5.3 2.2 6.3.7.3.4.4-.8.1-3.5-.9-6.4 2.4-8 9-1.5 6.6-1.8 18.3-.5 20.3 1.4 2.2 5.8.4 6.6-2.6l.7-2.7 1.3 3.1c1.2 2.8 1.6 3 6.1 2.8 2.7-.1 7.9-.2 11.7-.3l6.7-.1v-4.6c0-2.5-.5-5.4-1.1-6.6-.6-1.1-.9-2.1-.7-2.3.9-.9 8.6 2.7 10.5 5 1.2 1.4 2.8 2.4 3.5 2.3.7-.2 1.4.8 1.6 2.2.1 1.4 1 5.3 1.9 8.7 2.1 8.4 1.4 16.5-2.1 23.4-1.6 3-3.4 6.1-4.2 7-.8.9-1.1 1.9-.7 2.2.3.4-1.1.7-3.2.7-2.4 0-5.5-1-8.6-2.9-6.5-4.1-12.2-5.4-19.5-4.7l-6.2.6.7-3.2c1.3-5.9-2-14.8-5.4-14.8-1.8 0-1.8.8 0 4 2.1 3.7 1.8 6.4-1 9-2.1 2-3.7 2.4-8.2 2.4-4.8 0-5.8-.3-8-2.8-2-2.4-2.3-3.5-1.8-6.7.8-4.8.1-4.9-2.5-.7-2.4 4-2.5 7.6-.4 10.6l1.5 2.2h-9.4c-10.3 0-15.1 1.2-21.6 5.6-2.8 1.8-5.4 2.7-8.2 2.7-5 0-7.7-2.7-12.3-12.3-2.9-6.1-3.1-7.2-3-17.5.1-14.1 2.1-48.2 2.9-49.5.4-.6.2-3.4-.4-6.3-1.8-9.1-1.9-19.5-.3-22 6.8-10.1 19-15.4 32.2-13.9 3 .3 19.2.6 36 .7zm41.4 50.5c3.6 1.2 6.5 2.4 6.4 2.8-.1.4.4 2 1 3.5 1.7 4.2 1.3 8.3-1.3 11.5-.1.1-1.9-.5-4.1-1.4-5.6-2.4-17.3-2.2-25.2.3-3.4 1.2-6.4 1.7-6.7 1.3-1.1-1.7 1.5-5.7 7.5-11.8 4.7-4.7 5.8-6.2 4.4-6.3-1.8 0-1.8-.1.1-.9 3.5-1.5 11.1-1.1 17.9 1zM166 142c0 1.3-.7 2-1.9 2-2.7 0-3.5-1.7-1.4-2.9 2.6-1.5 3.3-1.3 3.3.9zm-17.7 51.1l4.2.1-4 .9c-5.1 1-13.8 1.1-19 .1-3.6-.6-3.2-.8 4-1.3 4.4-.3 8.6-.4 9.3-.2.8.2 3.2.4 5.5.4zm21.6 12.7c-1.5 5.5-6 11.7-9.8 13.7-4 2-4.2 2-8.4-1.4-3.2-2.5-4.5-2.9-10.4-2.9-6.6 0-12.3 1.8-12.3 3.8 0 .5.7 2.5 1.6 4.4 1.6 3.3 1.6 3.6-.5 7.2-1.2 2-2 4.3-1.7 5 .9 2.4-1 1.5-2.3-1-.9-1.5-1.1-3.8-.6-6.4 1.1-6.8.3-8-5.3-7.4-4 .3-5.3 0-7.8-2.1-1.6-1.4-4-4.7-5.4-7.3-2.5-5.2-3.9-14.7-2.2-15.8.6-.3 2.9 1.6 5.2 4.4 6 7.1 14.6 11.2 25.1 11.8 4.3.3 7.9.8 7.9 1.3 0 1.7 4.5.9 9.5-1.7 3.1-1.6 7.4-5.4 11.5-10l6.5-7.4.3 3.7c.2 2-.2 5.7-.9 8.1zm-28.3-4.7c-2.7.4-7.5.4-10.5 0-5-.8-4.4-.9 4.9-.9 8.8 0 9.7.2 5.6.9zm7.4 4.1c-3.1 1.3-19.4 1.3-23.5-.1-2.2-.7.7-.9 11.5-1 11.1 0 13.9.3 12 1.1zm-7 23.6c0 1.9-3.6 5.9-4.5 5-.3-.2.1-1.9.7-3.6 1.3-3.5 3.8-4.3 3.8-1.4z"/><path d="M95 111.1c-5.7 1.1-16.6 6.4-17.4 8.5-1.5 3.9 1.9 4.3 11.2 1.4 7.8-2.4 15.8-2.5 22.9-.3 6.2 1.9 8.6 1.2 9.1-2.9.2-2-.4-2.8-3.5-4.1-7.9-3.4-14.2-4.2-22.3-2.6zM119 128.7c.1 1 3.9 6 4 5.1 0-1.7-2.1-5.8-3-5.8-.5 0-1 .3-1 .7zM86.2 138.6c-5.3 2.6-7.8 5.5-6.6 7.5.4.6 1.2.2 2.1-1 .8-1.2 2.8-2.8 4.5-3.7 2.9-1.5 3-1.5 2.2.8-1 2.8-1 8.5-.1 9.5.4.4 5.8.9 12.1 1.1l11.3.4.6-3.2c.4-1.7.4-4.3.1-5.7-.6-2.3-.5-2.4 1.5-1.4 1.2.7 3.1 2.7 4.4 4.6 1.2 1.9 2.5 3.5 2.9 3.5 1.5 0 4.8-4.5 4.3-5.8-.3-.7-.5-1.7-.5-2.2 0-.4-1-1-2.2-1.3-1.3-.3-5.6-1.7-9.6-3.1-10.2-3.6-19.8-3.6-27 0zm11.4 2.5c.3.6 0 1.8-.9 2.6-1.8 1.8-3.7.9-3.7-1.8 0-2.1 3.4-2.7 4.6-.8z"/></svg>